<svg id="Capa_1" data-name="Capa 1" xmlns="http://www.w3.org/2000/svg" viewBox="0 0 500 500"><defs><style>.cls-1{fill:#1a1a1a;}</style></defs><title>Mesa de trabajo 1</title><path class="cls-1" d="M94.63,246.73,29.75,202a4.16,4.16,0,0,0-6.52,3.42v61.4h0a4.73,4.73,0,0,0,.11.93l0,.12a4,4,0,0,0,.31.81l.07.14a4.27,4.27,0,0,0,.49.71l.1.11a4.17,4.17,0,0,0,.67.59l0,0,64.87,44.53a4.2,4.2,0,0,0,2.35.73,4.16,4.16,0,0,0,4.16-4.16V250.16A4.18,4.18,0,0,0,94.63,246.73Zm-63.08-33.4,14.91,10.3v25L31.55,258.91ZM88.1,303.44,34.74,266.81l15.88-10.92L88.1,281.62Zm0-31.91L54.78,248.66v-19.3l33.32,23Z"/><path class="cls-1" d="M135.21,250.39V311.8a4.13,4.13,0,0,0,4.16,4.15,4.1,4.1,0,0,0,2.35-.73l65.52-45a4.16,4.16,0,0,0,1.8-3.43V205.41a4.16,4.16,0,0,0-6.51-3.43L137,247A4.16,4.16,0,0,0,135.21,250.39Zm65.52,8.07-14.92-10.23V223.55l14.92-10.24Zm-57.2-5.88,34-23.32v19l-34,23.33Zm0,29.08,38.13-26.19,16.2,11.11-54.33,37.31Z"/><path class="cls-1" d="M230.51,169.82,175,131.73a4.14,4.14,0,0,0-4.71,0l-26.24,18V112.29a4.71,4.71,0,0,0-4.18-4.68L118.53,92.94a4.14,4.14,0,0,0-4.71,0L1.8,169.85h0a4,4,0,0,0-.68.6l-.1.11a3.9,3.9,0,0,0-.49.71.61.61,0,0,0-.07.14,4,4,0,0,0-.31.81l0,.12a4.08,4.08,0,0,0-.11.93V327a4.15,4.15,0,0,0,1.8,3.43L25,346.42l0,0a2.85,2.85,0,0,0,.37.23c.12.06.24.09.36.14s.27.11.41.15a4.26,4.26,0,0,0,.62.13l.42.05h.13a4,4,0,0,0,.78-.08l.19,0a4.65,4.65,0,0,0,.92-.34l0,0a2.61,2.61,0,0,0,.28-.17l.13-.08L52.27,331l37.11,59.22a4.21,4.21,0,0,0,1.2,1.25l23.23,15.64.24.13a.88.88,0,0,0,.15.12l.13.05a5.92,5.92,0,0,0,.66.25,2.7,2.7,0,0,0,.39.08l.47.06a2.89,2.89,0,0,0,.29,0,4.11,4.11,0,0,0,2.35-.74l23.23-15.95h0a4.55,4.55,0,0,0,.58-.49l.16-.18c.11-.13.21-.25.31-.39l.15-.24a3.17,3.17,0,0,0,.21-.41l.12-.26c.05-.15.09-.3.13-.46a2.1,2.1,0,0,0,.06-.24,3.68,3.68,0,0,0,.06-.57,1,1,0,0,0,0-.17h0V330.55l18.11-12.43,40.89,28.08h0a4.06,4.06,0,0,0,.41.25,4.17,4.17,0,0,0,4.28-.23l23.23-15.73a4.18,4.18,0,0,0,1.82-3.45V173.56a2,2,0,0,0,0-.35A4.14,4.14,0,0,0,230.51,169.82Zm-86.43-4.7,22.06,15.15-22.06,15.15ZM120.3,143.19a4.16,4.16,0,0,0-6.52-3.41L90.57,155.72l-30.1,20.66-3.56-2.44,77.7-53.36v81.34l-14.31,9.83v-57.4h0V143.19ZM112,151.11v60.64L97.09,201.52V161.33ZM88.77,167.05v28.76l-21-14.38ZM46.46,324.85,31.55,335.09V297.93l14.91,23.83ZM112,389.18,65,314.29l39.39,27L112,353.09Zm-2.24-54.25L53.12,296.07h0L53,296a4.15,4.15,0,0,0-6,5.41h0l0,.07h0a.91.91,0,0,1,.09.17l55.05,87.57L96,385l-65-103.78a3.48,3.48,0,0,0-.48-.61l0-.06a4.44,4.44,0,0,0-.66-.56,4.17,4.17,0,0,0-6.52,3.43v51.65L8.32,324.85V181.18L93.6,239.73,112,252.34l0,84.13Zm6.38-89.83L11.51,173.28l104.67-71.87L132,112.28,47.2,170.51a4.17,4.17,0,0,0,0,6.86l66.58,45.71a4.18,4.18,0,0,0,4.71,0l57.35-39.37a4.17,4.17,0,0,0,0-6.86L147.6,157.44l25.08-17.24,48.13,33.05-48.14,33h0Zm4.18,150.64V365.93l13.37,20.62Zm80.43-60.87L169,313.08l31.75-21.8Zm23.23-10L209,334.93V283.38a4.16,4.16,0,0,0-6.51-3.43l-65.52,45a4.14,4.14,0,0,0-1.8,3.43v45.26l-14.91-23V252.32l18.1-12.43L224,181.17Z"/><path class="cls-1" d="M321.07,242.12l-18-29.93h-6.75v29.93H281V165.28h29.28q13.4,0,20.41,6.53t7,17.2a22.22,22.22,0,0,1-4.84,14.58q-4.85,5.88-14,7.84l19.16,30.69Zm-24.71-40.49H309q13.15,0,13.17-11.64c0-3.7-1.08-6.59-3.22-8.66s-5.46-3.1-9.95-3.1H296.36Z"/><path class="cls-1" d="M406.94,171.43a30.84,30.84,0,0,1,11.87,18.67H402.7a18.33,18.33,0,0,0-7.24-8.33,21.56,21.56,0,0,0-11.7-3.1,22.51,22.51,0,0,0-11.75,3,20.61,20.61,0,0,0-7.95,8.71,29.33,29.33,0,0,0-2.83,13.28q0,12.09,6.48,18.83t17.68,6.75a21.59,21.59,0,0,0,14.21-4.9q5.92-4.9,7.67-13.61h-26v-11h38.85v14.81a36.19,36.19,0,0,1-6.36,14,34.2,34.2,0,0,1-12.41,10.29,38.54,38.54,0,0,1-17.58,3.87,39.4,39.4,0,0,1-20-5A34.14,34.14,0,0,1,350.4,224a45.84,45.84,0,0,1,0-40.6,34.56,34.56,0,0,1,13.33-13.87,38.86,38.86,0,0,1,19.92-5Q397.69,164.52,406.94,171.43Z"/><path class="cls-1" d="M478.45,226.67h-30.8l-5.44,15.45H426l28.3-76h17.52l28.19,76H483.78ZM474.31,215,463,182.59,451.67,215Z"/><path class="cls-1" d="M285.82,262.52v9.4h11.42v3.86H285.82v9.62h12.73v4.09H280.81v-31h17.74v4Z"/><path class="cls-1" d="M318.75,266.61a8.48,8.48,0,0,1,3.25,4.3V257h5.05v32.5H322v-5.63a8.51,8.51,0,0,1-3.25,4.31,9.58,9.58,0,0,1-5.62,1.62,10.66,10.66,0,0,1-5.64-1.49,10.24,10.24,0,0,1-3.89-4.3,16.3,16.3,0,0,1,0-13.22,10.27,10.27,0,0,1,3.89-4.31,10.75,10.75,0,0,1,5.64-1.49A9.51,9.51,0,0,1,318.75,266.61Zm-9.42,4.89a9.64,9.64,0,0,0,0,11.73,7,7,0,0,0,5.34,2.13,7.24,7.24,0,0,0,3.77-1,7,7,0,0,0,2.64-2.79,9.6,9.6,0,0,0,0-8.41,7,7,0,0,0-2.64-2.81,7.24,7.24,0,0,0-3.77-1A7,7,0,0,0,309.33,271.5Z"/><path class="cls-1" d="M355.38,265.29v24.2h-5.05v-5.28a7.84,7.84,0,0,1-3.21,4.16,9.58,9.58,0,0,1-5.31,1.47,8.81,8.81,0,0,1-6.76-2.73q-2.55-2.72-2.55-7.77v-14h5v13.52a7.12,7.12,0,0,0,1.67,5.08,6,6,0,0,0,4.56,1.78,6.24,6.24,0,0,0,4.79-1.94,7.94,7.94,0,0,0,1.8-5.62V265.29Z"/><path class="cls-1" d="M379.92,267.46a10.69,10.69,0,0,1,3.83,6.74h-5.32a5.68,5.68,0,0,0-2.13-3.58,6.78,6.78,0,0,0-4.23-1.29,6.39,6.39,0,0,0-4.84,2,10.31,10.31,0,0,0,0,12,6.34,6.34,0,0,0,4.84,2.07,6.68,6.68,0,0,0,4.23-1.32,5.75,5.75,0,0,0,2.13-3.6h5.32a10.76,10.76,0,0,1-3.83,6.76,11.86,11.86,0,0,1-7.77,2.5,12.57,12.57,0,0,1-6.21-1.49,10.64,10.64,0,0,1-4.24-4.3,15,15,0,0,1,0-13.22,10.67,10.67,0,0,1,4.24-4.31,12.68,12.68,0,0,1,6.21-1.49A12,12,0,0,1,379.92,267.46Z"/><path class="cls-1" d="M403.9,266.61a8.8,8.8,0,0,1,3.3,4.3v-5.62h5v24.2h-5v-5.63a8.83,8.83,0,0,1-3.3,4.31,9.58,9.58,0,0,1-5.62,1.62,10.66,10.66,0,0,1-5.64-1.49,10.24,10.24,0,0,1-3.89-4.3,16.3,16.3,0,0,1,0-13.22,10.27,10.27,0,0,1,3.89-4.31,10.75,10.75,0,0,1,5.64-1.49A9.51,9.51,0,0,1,403.9,266.61Zm-9.42,4.89a9.64,9.64,0,0,0,0,11.73,7,7,0,0,0,5.34,2.13,7.24,7.24,0,0,0,3.77-1,7,7,0,0,0,2.64-2.79,9.6,9.6,0,0,0,0-8.41,7,7,0,0,0-2.64-2.81,7.24,7.24,0,0,0-3.77-1A7,7,0,0,0,394.48,271.5Z"/><path class="cls-1" d="M430.39,285.14v4.35h-3.08a8.31,8.31,0,0,1-5.86-1.87c-1.33-1.24-2-3.32-2-6.21V269.55H416v-4.26h3.47v-6h5.05v6h5.84v4.26H424.5v11.94a4.12,4.12,0,0,0,.77,2.86,3.68,3.68,0,0,0,2.7.79Z"/><path class="cls-1" d="M435.26,256.15a3.26,3.26,0,0,1,2.33-.83,3.36,3.36,0,0,1,2.35.83,2.76,2.76,0,0,1,.9,2.11,2.63,2.63,0,0,1-.9,2.07,3.48,3.48,0,0,1-2.35.79,3.37,3.37,0,0,1-2.33-.79,2.65,2.65,0,0,1-.88-2.07A2.78,2.78,0,0,1,435.26,256.15Zm4.83,9.14v24.2h-5v-24.2Z"/><path class="cls-1" d="M463.54,266.47a10.72,10.72,0,0,1,4.39,4.31,14.62,14.62,0,0,1,0,13.22,10.69,10.69,0,0,1-4.39,4.3,13.19,13.19,0,0,1-6.32,1.49,13.06,13.06,0,0,1-6.3-1.49,10.89,10.89,0,0,1-4.4-4.32,13.23,13.23,0,0,1-1.6-6.61,13,13,0,0,1,1.6-6.59,10.92,10.92,0,0,1,4.4-4.31,13.17,13.17,0,0,1,6.3-1.49A13.31,13.31,0,0,1,463.54,266.47Zm-9.88,3.74a6.43,6.43,0,0,0-2.61,2.7,10.59,10.59,0,0,0,0,8.94,6.47,6.47,0,0,0,2.61,2.67,7.64,7.64,0,0,0,7.12,0,6.47,6.47,0,0,0,2.61-2.67,10.68,10.68,0,0,0,0-8.94,6.43,6.43,0,0,0-2.61-2.7,7.64,7.64,0,0,0-7.12,0Z"/><path class="cls-1" d="M494.63,267.62q2.55,2.72,2.55,7.77v14.1h-5V275.92a7.07,7.07,0,0,0-1.67-5,5.93,5.93,0,0,0-4.56-1.78,6.29,6.29,0,0,0-4.79,1.91,7.87,7.87,0,0,0-1.8,5.6v12.87h-5v-24.2h5v5.31a8.1,8.1,0,0,1,3.25-4.21,9.35,9.35,0,0,1,5.27-1.5A8.81,8.81,0,0,1,494.63,267.62Z"/><path class="cls-1" d="M285.82,324.81v12h-5v-31h10.54q5.36,0,8.06,2.54a9.15,9.15,0,0,1,2.7,7,8.91,8.91,0,0,1-2.77,6.92c-1.84,1.68-4.51,2.52-8,2.52ZM297,315.37a5.21,5.21,0,0,0-1.47-4q-1.47-1.38-4.72-1.38h-5v10.75h5Q297,320.72,297,315.37Z"/><path class="cls-1" d="M311.51,304.35v32.49h-5V304.35Z"/><path class="cls-1" d="M332.89,314a8.83,8.83,0,0,1,3.3,4.31v-5.63h5v24.2h-5v-5.62a8.76,8.76,0,0,1-3.3,4.3,9.51,9.51,0,0,1-5.62,1.63,10.78,10.78,0,0,1-5.64-1.49,10.27,10.27,0,0,1-3.89-4.31,16.3,16.3,0,0,1,0-13.22,10.3,10.3,0,0,1,3.89-4.3,10.78,10.78,0,0,1,5.64-1.49A9.58,9.58,0,0,1,332.89,314Zm-9.41,4.9a9.58,9.58,0,0,0,0,11.72,7,7,0,0,0,5.33,2.13,7.19,7.19,0,0,0,3.78-1,6.92,6.92,0,0,0,2.63-2.78,9.6,9.6,0,0,0,0-8.41,6.94,6.94,0,0,0-2.63-2.81,7.28,7.28,0,0,0-3.78-1A7,7,0,0,0,323.48,318.86Z"/><path class="cls-1" d="M359.37,332.49v4.35H356.3a8.29,8.29,0,0,1-5.86-1.86c-1.34-1.25-2-3.32-2-6.22V316.9H345v-4.26h3.47v-6h5.05v6h5.84v4.26h-5.84v12a4.07,4.07,0,0,0,.77,2.85,3.68,3.68,0,0,0,2.7.79Z"/><path class="cls-1" d="M371.23,308.58a4.78,4.78,0,0,0-1.18,3.67v.39h5.31V317h-5.31v19.89H365V317h-3.3v-4.31H365v-.79q0-4.43,2.59-6.65t7.77-1.95v4.39C373.4,307.55,372,307.87,371.23,308.58Z"/><path class="cls-1" d="M396.79,313.83a10.75,10.75,0,0,1,4.39,4.3,14.62,14.62,0,0,1,0,13.22,10.72,10.72,0,0,1-4.39,4.31,14.13,14.13,0,0,1-12.63,0,10.89,10.89,0,0,1-4.39-4.33,14.41,14.41,0,0,1,0-13.2,10.94,10.94,0,0,1,4.39-4.3,14.13,14.13,0,0,1,12.63,0Zm-9.88,3.73a6.49,6.49,0,0,0-2.61,2.7,10.59,10.59,0,0,0,0,8.94,6.43,6.43,0,0,0,2.61,2.68,7.62,7.62,0,0,0,7.11,0,6.45,6.45,0,0,0,2.62-2.68,10.68,10.68,0,0,0,0-8.94,6.51,6.51,0,0,0-2.62-2.7,7.7,7.7,0,0,0-7.11,0Z"/><path class="cls-1" d="M416.11,313.63a10,10,0,0,1,5.27-1.38v5.44h-1.49a8.18,8.18,0,0,0-5.29,1.61q-2,1.6-2,5.29v12.25h-5v-24.2h5v4.75A9.41,9.41,0,0,1,416.11,313.63Z"/><path class="cls-1" d="M462.24,315c1.72,1.82,2.57,4.41,2.57,7.78v14.09h-5V323.27a7,7,0,0,0-1.58-4.89,5.58,5.58,0,0,0-4.35-1.74,6.07,6.07,0,0,0-4.68,1.87,7.77,7.77,0,0,0-1.73,5.47v12.86h-5V323.27a7,7,0,0,0-1.58-4.89,5.57,5.57,0,0,0-4.35-1.74,6,6,0,0,0-4.67,1.87,7.73,7.73,0,0,0-1.74,5.47v12.86h-5v-24.2h5v5.05a7.67,7.67,0,0,1,3.08-4,9,9,0,0,1,5.05-1.41,9.17,9.17,0,0,1,5.24,1.49,8.44,8.44,0,0,1,3.23,4.31,8.69,8.69,0,0,1,3.38-4.26,9.33,9.33,0,0,1,5.27-1.54A9,9,0,0,1,462.24,315Z"/></svg>