<svg id="Capa_1" data-name="Capa 1" xmlns="http://www.w3.org/2000/svg" viewBox="0 0 360 360"><defs><style>.cls-1{fill:#333;}</style></defs><title>Mesa de trabajo 6</title><path class="cls-1" d="M180,22.5a18.68,18.68,0,0,1,18.75,18.75V68.1a111.71,111.71,0,0,1,47.1,19.5l19-19a18.77,18.77,0,0,1,26.54,26.54l-19,19a113,113,0,0,1,19.42,47.1h26.93a18.75,18.75,0,1,1,0,37.5H291.82a111.85,111.85,0,0,1-19.5,47l19.05,19a18.77,18.77,0,0,1-26.54,26.55l-19-19a112.64,112.64,0,0,1-47.1,19.43v26.92a18.75,18.75,0,1,1-37.5,0V291.83a111.73,111.73,0,0,1-47.1-19.51L95.1,291.37a18.75,18.75,0,0,1-26.47-26.55l19-19a111.71,111.71,0,0,1-19.5-47.1H41.25a18.75,18.75,0,1,1,0-37.5H68.1a112.09,112.09,0,0,1,19.5-47.1l-19-19A18.82,18.82,0,0,1,81.9,63.08a18.44,18.44,0,0,1,13.2,5.55l19.05,19a110.93,110.93,0,0,1,47.1-19.57V41.25A18.76,18.76,0,0,1,180,22.5M180,240a59.86,59.86,0,0,0,18.75-3,46.25,46.25,0,0,0,8.25-3.45A59.81,59.81,0,0,0,233.55,207a53,53,0,0,0,3.45-8.25,60.09,60.09,0,0,0,0-37.5,53.4,53.4,0,0,0-3.45-8.25A59.81,59.81,0,0,0,207,126.45a46.25,46.25,0,0,0-8.25-3.45,60.09,60.09,0,0,0-37.5,0,50.7,50.7,0,0,0-8.32,3.45A59.61,59.61,0,0,0,126.45,153a53.4,53.4,0,0,0-3.45,8.25,60.09,60.09,0,0,0,0,37.5,53,53,0,0,0,3.45,8.25,59.61,59.61,0,0,0,26.48,26.55,50.7,50.7,0,0,0,8.32,3.45A59.86,59.86,0,0,0,180,240M180,0a41.29,41.29,0,0,0-41.25,41.25v9.14a131.75,131.75,0,0,0-21.24,8.82L111,52.72a41.25,41.25,0,1,0-58.29,58.37l6.48,6.48a136.76,136.76,0,0,0-8.77,21.18H41.25a41,41,0,0,0-29.18,12.06,41.27,41.27,0,0,0,29.18,70.44h9.14a132.93,132.93,0,0,0,8.78,21.21l-6.45,6.46A41.24,41.24,0,0,0,111,307.28l6.53-6.53a132.05,132.05,0,0,0,21.21,8.79v9.21a41.25,41.25,0,0,0,82.5,0v-9.21a132.75,132.75,0,0,0,21.17-8.75l6.5,6.49A41.27,41.27,0,0,0,307.37,249l-6.64-6.64a136.31,136.31,0,0,0,8.75-21.11h9.27a41,41,0,0,0,29.19-12.06,41.28,41.28,0,0,0-29.19-70.44H309.5a136.18,136.18,0,0,0-8.74-21.14l6.52-6.53a41.27,41.27,0,1,0-58.37-58.36l-6.45,6.45a132.93,132.93,0,0,0-21.21-8.78V41.25A41.19,41.19,0,0,0,180,0Zm0,217.5a37.52,37.52,0,0,1-11.72-1.87l-.2-.07-.21-.07a27.24,27.24,0,0,1-4.65-2A37.37,37.37,0,0,1,146.6,197a32.06,32.06,0,0,1-2.14-5,37.6,37.6,0,0,1-.09-23.69,32.1,32.1,0,0,1,2.09-5,37.53,37.53,0,0,1,16.63-16.77,28.32,28.32,0,0,1,4.78-2l.21-.07.2-.07a37.66,37.66,0,0,1,23.44,0,26,26,0,0,1,4.54,1.85l.31.17.32.16a37.16,37.16,0,0,1,16.56,16.56,31.45,31.45,0,0,1,2.09,4.92,37.6,37.6,0,0,1,.09,23.69,32.1,32.1,0,0,1-2.09,5,37.31,37.31,0,0,1-16.65,16.74l-.32.16-.31.17a24.15,24.15,0,0,1-4.29,1.76,37.74,37.74,0,0,1-12,2Z"/></svg>