<svg id="Capa_1" data-name="Capa 1" xmlns="http://www.w3.org/2000/svg" viewBox="0 0 360 360"><defs><style>.cls-1{fill:#fff;}</style></defs><title>Mesa de trabajo 7</title><path class="cls-1" d="M304,137.14H258.52V135.5a47.95,47.95,0,0,0-72-41.57l-65.18,37.64a48,48,0,0,0,0,83.13l65.18,37.64a47.95,47.95,0,0,0,72-41.57v-1.63H304a36,36,0,0,0,0-72Zm0,48H234.52v25.63a24,24,0,0,1-36,20.79l-65.18-37.64a24,24,0,0,1,0-41.57l65.18-37.64a24,24,0,0,1,36,20.79v25.64H304a12,12,0,0,1,0,24Z"/><path class="cls-1" d="M188,266.36V312a24,24,0,0,1-24,24H68a24,24,0,0,1-24-24V48A24,24,0,0,1,68,24h96a24,24,0,0,1,24,24V79.91a59.72,59.72,0,0,1,22.49-4.45h0c.51,0,1,.06,1.51.07V48A48.05,48.05,0,0,0,164,0H68A48.05,48.05,0,0,0,20,48V312a48.05,48.05,0,0,0,48,48h96a48.05,48.05,0,0,0,48-48V270.74c-.51,0-1,.07-1.51.07A59.72,59.72,0,0,1,188,266.36Z"/></svg>