<svg id="Capa_1" data-name="Capa 1" xmlns="http://www.w3.org/2000/svg" viewBox="0 0 360 360"><defs><style>.cls-1{fill:#fff;}</style></defs><title>Mesa de trabajo 2</title><rect class="cls-1" x="144.15" y="176.02" width="135.42" height="15.93"/><path class="cls-1" d="M303.47.76H56.53a47.86,47.86,0,0,0-47.8,47.8V311.44a47.86,47.86,0,0,0,47.8,47.8H303.47a47.86,47.86,0,0,0,47.8-47.8V48.56A47.86,47.86,0,0,0,303.47.76Zm-231,334.58H56.53a23.9,23.9,0,0,1-23.9-23.9V48.56a23.9,23.9,0,0,1,23.9-23.9H72.46Zm254.91-23.9a23.9,23.9,0,0,1-23.9,23.9H96.36V24.66H303.47a23.9,23.9,0,0,1,23.9,23.9Z"/><path class="cls-1" d="M144.15,152.12H279.58V56.53H144.15Zm23.9-71.7h87.63v47.8H168.05Z"/></svg>