<svg id="Capa_1" data-name="Capa 1" xmlns="http://www.w3.org/2000/svg" viewBox="0 0 360 360"><defs><style>.cls-1{fill:#333;}</style></defs><title>Mesa de trabajo 4</title><path class="cls-1" d="M311,44.86C242.17-23.89,142.82-7.85,15.63,92.71a39,39,0,0,0-3.29,58.09L63.58,202v.09A65.43,65.43,0,0,0,71.9,284,64.54,64.54,0,0,0,117.85,303a63.58,63.58,0,0,0,35.89-10.83l53.32,53.32A38.81,38.81,0,0,0,234.63,357h.18a38.56,38.56,0,0,0,27.74-11.7C303,304,426.41,160.25,311,44.86ZM234.63,331a12.8,12.8,0,0,1-9.19-3.81l-53.32-53.32-9.45-9.45-9.62-9.63-51.93-51.93-9.63-9.62L82,183.75,30.72,132.42a13,13,0,0,1,1-19.33C148.54,20.84,233.85,4.54,292.63,63.24,388.35,159,290.47,279.63,244,327.06a13.1,13.1,0,0,1-9.28,3.9ZM90.28,265.59a39.06,39.06,0,0,1-7.54-44.39l52,52a39.11,39.11,0,0,1-44.48-7.63Z"/></svg>