<svg id="Capa_1" data-name="Capa 1" xmlns="http://www.w3.org/2000/svg" viewBox="0 0 1000 1000"><defs><style>.cls-1{fill:#1a1a1a;}</style></defs><title>Mesa de trabajo 1</title><path class="cls-1" d="M431.77,489.65,226.21,347.86a13.18,13.18,0,0,0-20.66,10.85V553.27h0a12.9,12.9,0,0,0,.36,2.92c0,.13.05.26.08.38a13,13,0,0,0,1,2.58c.08.15.15.3.23.44a13.84,13.84,0,0,0,1.55,2.25c.1.12.21.23.32.35a12.69,12.69,0,0,0,2.13,1.87l.07.07L416.83,705.23a13.18,13.18,0,0,0,20.64-10.86V500.5A13.18,13.18,0,0,0,431.77,489.65ZM231.91,383.82l47.25,32.61v79.32l-47.25,32.47Zm179.2,285.51L242,553.27l50.33-34.6,118.77,81.51Zm0-101.12L305.52,495.75V434.61l105.59,72.82Z"/><path class="cls-1" d="M560.37,501.24V695.81A13.17,13.17,0,0,0,581,706.67l207.6-142.58a13.18,13.18,0,0,0,5.72-10.86V358.71a13.18,13.18,0,0,0-20.64-10.86L566.09,490.38A13.18,13.18,0,0,0,560.37,501.24ZM768,526.81l-47.25-32.42v-78.2L768,383.75ZM586.73,508.18l107.63-73.9V494.4L586.73,568.33Zm0,92.13,120.81-83,51.33,35.21L586.73,670.76Z"/><path class="cls-1" d="M862.34,245.93,686.56,125.24a13.18,13.18,0,0,0-14.93,0l-83.14,57.12V63.63a14.94,14.94,0,0,0-13.25-14.82L507.52,2.32a13.17,13.17,0,0,0-14.92,0L137.66,246l-.07.06a12.87,12.87,0,0,0-2.14,1.89l-.31.33a13,13,0,0,0-1.56,2.26l-.22.43a14,14,0,0,0-1,2.59c0,.12,0,.24-.07.37a13,13,0,0,0-.36,2.94V744.12A13.18,13.18,0,0,0,137.66,755l73.61,50.54.14.07a13.79,13.79,0,0,0,1.18.73,11.65,11.65,0,0,0,1.12.42,12,12,0,0,0,1.3.49,12.28,12.28,0,0,0,2,.39,12.06,12.06,0,0,0,1.33.16c.13,0,.26.05.4.05a13.83,13.83,0,0,0,2.48-.26l.58-.14a13.12,13.12,0,0,0,2.92-1.06l.16,0c.31-.17.6-.37.9-.56l.42-.24,71.37-49L415.16,944.2a13.22,13.22,0,0,0,3.81,3.93l73.61,49.58c.23.16.49.27.73.42s.31.26.49.35.28.1.42.17a14.68,14.68,0,0,0,2.09.79,10.54,10.54,0,0,0,1.24.27,12.37,12.37,0,0,0,1.49.18c.3,0,.6.11.9.11a13.17,13.17,0,0,0,7.46-2.32L581,947.14l0,0a13.6,13.6,0,0,0,1.84-1.55c.18-.18.33-.38.49-.57a13,13,0,0,0,1-1.23c.17-.25.33-.51.49-.77.24-.42.46-.84.66-1.28a8.41,8.41,0,0,0,.35-.82,12.43,12.43,0,0,0,.44-1.47,6.66,6.66,0,0,0,.19-.77,13.39,13.39,0,0,0,.19-1.8c0-.18,0-.36,0-.54,0,0,0,0,0,0v-181l57.38-39.39,129.58,89h0a13.54,13.54,0,0,0,1.27.79,13.21,13.21,0,0,0,13.57-.73L862.15,755a13.2,13.2,0,0,0,5.79-10.92V257.8a10.1,10.1,0,0,0,.12-1.12A13.16,13.16,0,0,0,862.34,245.93ZM588.49,231l69.88,48-69.88,48Zm-75.38-69.46a13.17,13.17,0,0,0-20.63-10.82l-73.55,50.5-95.38,65.49L312.25,259,558.48,89.92V347.65L513.12,378.8V196.91h.06V161.57Zm-26.35,25.08V378.8l-47.19-32.4V219.05Zm-73.55,50.49V328.3l-66.38-45.58Zm-134,500-47.25,32.45V651.88l47.25,75.51ZM486.76,941l-149-237.3,124.8,85.67,24.19,37.3Zm-7.1-171.88L300.24,646h0l-.44-.31a13.15,13.15,0,0,0-19,17.15l-.06,0,.13.22,0,0c.1.17.16.35.27.52L455.61,941,436,927.83,230,599a13.15,13.15,0,0,0-1.54-2s-.08-.12-.13-.17a14.54,14.54,0,0,0-2.08-1.77A13.18,13.18,0,0,0,205.55,606V769.63l-47.26-32.45V281.92L428.51,467.45,486.7,507.4,486.76,774Zm20.22-284.65L168.4,256.89,500.06,29.17l50.17,34.44L281.51,248.12a13.18,13.18,0,0,0,0,21.73l211,144.85a13.17,13.17,0,0,0,14.92,0L689.1,289.94a13.19,13.19,0,0,0,0-21.73L599.62,206.7l79.48-54.61L831.6,256.8,679.08,361.47h0Zm13.24,477.32V867.33l42.38,65.35ZM768,768.93,667.39,699.87,768,630.81Zm73.61-31.8-47.25,32V605.78a13.18,13.18,0,0,0-20.64-10.86L566.09,737.45a13.18,13.18,0,0,0-5.72,10.86V891.73l-47.25-72.87V507.36L570.49,468,841.58,281.92Z"/></svg>