<svg id="Capa_1" data-name="Capa 1" xmlns="http://www.w3.org/2000/svg" viewBox="0 0 360 360"><defs><style>.cls-1{fill:#333;}</style></defs><title>Mesa de trabajo 5</title><path class="cls-1" d="M310.5,0H49.5A50.56,50.56,0,0,0-1,50.51v259A50.64,50.64,0,0,0,49.67,360,49.65,49.65,0,0,0,85.2,345.18L198.86,231.52H310.5A50.55,50.55,0,0,0,361,181V50.51A50.56,50.56,0,0,0,310.5,0Zm25.25,181a25.22,25.22,0,0,1-25.25,25.26H198.86A25.36,25.36,0,0,0,181,213.68L67.35,327.33a24.65,24.65,0,0,1-17.68,7.41c-13,0-25.42-10-25.42-25.25v-259A25.22,25.22,0,0,1,49.5,25.26h261a25.22,25.22,0,0,1,25.25,25.25Z"/><rect class="cls-1" x="104.23" y="79.98" width="159.96" height="25.26"/><rect class="cls-1" x="104.23" y="122.08" width="159.96" height="25.26"/></svg>