<svg id="Capa_1" data-name="Capa 1" xmlns="http://www.w3.org/2000/svg" viewBox="0 0 360 360"><defs><style>.cls-1{fill:#fff;}</style></defs><title>Mesa de trabajo 3</title><path class="cls-1" d="M303.94.08H56.06a48,48,0,0,0-48,48V311.94a48,48,0,0,0,48,48H303.94a48,48,0,0,0,48-48V48.06A48,48,0,0,0,303.94.08Zm24,311.86a24,24,0,0,1-24,24H56.06a24,24,0,0,1-24-24V48.06a24,24,0,0,1,24-24H303.94a24,24,0,0,1,24,24Z"/><path class="cls-1" d="M134.82,192H77.57A29.59,29.59,0,0,0,48.06,221.5v60.93a29.58,29.58,0,0,0,29.51,29.51h57.25a29.59,29.59,0,0,0,29.51-29.51V221.5A29.6,29.6,0,0,0,134.82,192Zm5.52,90.44a5.53,5.53,0,0,1-5.52,5.52H77.57a5.53,5.53,0,0,1-5.52-5.52V221.5A5.53,5.53,0,0,1,77.57,216h57.25a5.53,5.53,0,0,1,5.52,5.52Z"/><path class="cls-1" d="M191.51,31.59,157,66.13a29.38,29.38,0,0,0-22.15-10.07H77.57a29.58,29.58,0,0,0-29.51,29.5V146.5A29.58,29.58,0,0,0,77.57,176h57.25a29.59,29.59,0,0,0,29.51-29.5V92.68l44.14-44.14a12,12,0,1,0-17-16.95ZM140.34,146.5a5.53,5.53,0,0,1-5.52,5.51H77.57a5.53,5.53,0,0,1-5.52-5.51V85.56A5.53,5.53,0,0,1,77.57,80h57.25a5.5,5.5,0,0,1,5,3.2L112,111.07,100.52,99.56a12,12,0,1,0-17,17l20,20a12,12,0,0,0,17,0l19.83-19.83Z"/></svg>